<?xml version="1.0" encoding="iso-8859-1"?>
<!-- Generator: Adobe Illustrator 18.1.1, SVG Export Plug-In . SVG Version: 6.00 Build 0)  -->
<svg version="1.1" id="Capa_1" xmlns="http://www.w3.org/2000/svg" xmlns:xlink="http://www.w3.org/1999/xlink" x="0px" y="0px"
	 viewBox="0 0 389.533 389.533" style="enable-background:new 0 0 389.533 389.533;" xml:space="preserve">
<g>
	<g id="Layer_5_16_">
		<g>
			<path d="M339.764,95.293c-27.441,0-49.767,22.326-49.767,49.768c0,22.638,15.196,41.788,35.922,47.801
				c1.382,0.4,4.292,0.984,3.922,3.693c-5.466,50.457-14.095,83.242-27.73,108.72c-16.948,31.667-41.22,47.061-74.199,47.061
				c-38.249,0-67.058-14.846-85.629-44.125c-9.07-14.3-13.446-28.8-15.426-37.423c-0.22-0.959-0.895-2.651,1.188-2.651h1.146
				c11.143,0,20.207-9.064,20.207-20.207c0-5.144-1.941-9.835-5.121-13.402c-0.568-0.638-1.899-1.765,0-2.716
				c10.991-5.415,21.036-12.269,31.881-21.454c19.713-16.695,44.863-45.189,52.735-86.119c1.394-7.241-0.783-18.245-25.927-49.458
				c-10.243-12.714-20.043-23.664-27.337-31.443c-1.502-1.493-1.108-3.026-1.108-3.863c0-8.974-7.302-16.276-16.276-16.276
				s-16.275,7.302-16.275,16.276c0,8.639,6.766,15.727,15.276,16.244c0.331,0.02,0.902-0.03,1.671,0.732
				c0.055,0.055,16.262,17.48,25.949,29.351c20.335,24.918,22.956,33.516,23.285,35.088c-6.854,34.592-28.532,59.016-45.565,73.442
				c-21.39,18.116-41.646,25.636-47.737,25.636c-7.792,0-28.099-8.306-48.846-26.771c-16.726-14.887-38.023-40.145-44.919-76.168
				c2.041-7.841,23.009-33.675,48.941-60.203c1.02-1.147,2.322-1.133,2.939-1.211c8.014-1.006,14.235-7.857,14.235-16.14
				c0-8.974-7.302-16.276-16.276-16.276s-16.275,7.302-16.275,16.276c0,0.958,0.397,2.537-1.2,4.266
				c-6.752,6.973-16.062,16.895-26.234,28.749c-24.385,28.417-28.41,39.519-26.951,47.444c7.79,42.361,32.458,71.752,51.779,88.949
				c12.925,11.504,24.285,19.436,37.072,24.993c2.931,1.636,1.397,3.31,0.796,4.411c-1.567,2.866-2.458,6.152-2.458,9.642
				c0,11.143,9.065,20.207,20.208,20.207h1.885c2.75,0,2.758,1.577,2.943,2.505c1.804,9.061,6.48,26.762,17.669,44.587
				c14.635,23.314,43.474,51.106,97.754,51.106c86.35,0,107.239-87.833,115.85-168.248c0.2-2.617,4.14-3.902,5.969-4.275
				c22.682-4.628,39.803-24.723,39.803-48.752C389.533,117.619,367.206,95.293,339.764,95.293z M339.764,163.52
				c-11.287,0-20.471-9.184-20.471-20.474c0-11.286,9.184-20.469,20.471-20.469c11.289,0,20.473,9.183,20.473,20.469
				C360.237,154.336,351.053,163.52,339.764,163.52z"/>
		</g>
	</g>
</g>
<g>
</g>
<g>
</g>
<g>
</g>
<g>
</g>
<g>
</g>
<g>
</g>
<g>
</g>
<g>
</g>
<g>
</g>
<g>
</g>
<g>
</g>
<g>
</g>
<g>
</g>
<g>
</g>
<g>
</g>
</svg>
